# xmcd
#
# Track frame offsets: 
#        150
#        23751
#        38212
#        54942
#        70669
#        85009
#        107846
#        123830
#        144404
#        165023
#        177465
#        197711
#        214507
#        231453
#        248921
#        261674
#        280973
#        295816
#        313154
#        328977
#        337830
#
# Disc length: 4789 seconds
#
# Revision: 0
# Processed by: cddbd v1.5.1PL0 Copyright (c) Steve Scherf et al.
# Submitted via: ExactAudioCopy v0.95a3
#
DISCID=3312b315
DTITLE=Various Artist - Не Попса 4
DYEAR=2000
DGENRE=Rock
TTITLE0=Два Самолёта - Подруга
TTITLE1=Король И Шут - Прыгну Со Скалы
TTITLE2=Земфира - Брызги
TTITLE3=Чичерина - Жара
TTITLE4=Ground Beat - Дорога В Никуда
TTITLE5=Найк Борзов - Лошадка
TTITLE6=Браво - Любовь Не Тонет, Любовь Не Горит
TTITLE7=Агата Кристи - Четыре Слова
TTITLE8=Би-2 - Серебро
TTITLE9=Лакмус - Несчастный Случай
TTITLE10=Tanki - Прости
TTITLE11=Земфира - До Свидания...
TTITLE12=Танит - Метка
TTITLE13=Танцы Минус - Дерево
TTITLE14=Биплан - Телефоны
TTITLE15=H2O - Падали Звёзды
TTITLE16=Михаил Башаков - Сабля
TTITLE17=Серьга - Привык, Забыл, Потерял
TTITLE18=Воплi Вiдоплясова - Е-Е
TTITLE19=S.P.O.R.T. - К Чёрту
TTITLE20=Жанна Агузарова - Прогулка-2
EXTD=
EXTT0=
EXTT1=
EXTT2=
EXTT3=
EXTT4=
EXTT5=
EXTT6=
EXTT7=
EXTT8=
EXTT9=
EXTT10=
EXTT11=
EXTT12=
EXTT13=
EXTT14=
EXTT15=
EXTT16=
EXTT17=
EXTT18=
EXTT19=
EXTT20=
PLAYORDER=
